<svg viewBox="0 0 24 24" xmlns="http://www.w3.org/2000/svg">
  <g fill="#ff2c5e">
    <path d="M12 2C13.2 2 15.1 3 15.7 5C16.3 7 15.3 9 13.2 10C12.6 10.3 11.4 10.3 10.8 10C8.7 9 7.7 7 8.3 5C8.9 3 10.8 2 12 2Z"/>
    <path d="M12 2C13.2 2 15.1 3 15.7 5C16.3 7 15.3 9 13.2 10C12.6 10.3 11.4 10.3 10.8 10C8.7 9 7.7 7 8.3 5C8.9 3 10.8 2 12 2Z" transform="rotate(120 12 12)"/>
    <path d="M12 2C13.2 2 15.1 3 15.7 5C16.3 7 15.3 9 13.2 10C12.6 10.3 11.4 10.3 10.8 10C8.7 9 7.7 7 8.3 5C8.9 3 10.8 2 12 2Z" transform="rotate(240 12 12)"/>
    <circle cx="12" cy="12" r="2.2"/>
  </g>
</svg>
